<svg id="visual" viewBox="0 0 1024 468" width="1024" height="468" xmlns="http://www.w3.org/2000/svg" xmlns:xlink="http://www.w3.org/1999/xlink" version="1.1"><rect x="0" y="0" width="1024" height="468" fill="#fff"></rect><defs><linearGradient id="grad1_0" x1="54.3%" y1="100%" x2="100%" y2="0%"><stop offset="6.239316239316235%" stop-color="#ffffff" stop-opacity="1"></stop><stop offset="93.76068376068378%" stop-color="#ffffff" stop-opacity="1"></stop></linearGradient></defs><defs><linearGradient id="grad2_0" x1="0%" y1="100%" x2="45.7%" y2="0%"><stop offset="6.239316239316235%" stop-color="#ffffff" stop-opacity="1"></stop><stop offset="93.76068376068378%" stop-color="#ffffff" stop-opacity="1"></stop></linearGradient></defs><g transform="translate(1024, 468)"><path d="M-210.6 0C-201.9 -34.8 -193.1 -69.5 -176.7 -102C-160.2 -134.5 -136 -164.7 -105.3 -182.4C-74.6 -200.1 -37.3 -205.4 0 -210.6L0 0Z" fill="#022B3A"></path></g><g transform="translate(0, 0)"><path d="M210.6 0C194.9 30.8 179.3 61.5 163.7 94.5C148.1 127.5 132.6 162.7 105.3 182.4C78 202.1 39 206.4 0 210.6L0 0Z" fill="#022B3A"></path></g></svg>