<svg id="visual" viewBox="0 0 1920 1080" width="1920" height="1080" xmlns="http://www.w3.org/2000/svg" xmlns:xlink="http://www.w3.org/1999/xlink" version="1.1"><rect x="0" y="0" width="1920" height="1080" fill="#fff"></rect><defs><linearGradient id="grad1_0" x1="43.8%" y1="100%" x2="100%" y2="0%"><stop offset="14.444444444444446%" stop-color="#ffffff" stop-opacity="1"></stop><stop offset="85.55555555555554%" stop-color="#ffffff" stop-opacity="1"></stop></linearGradient></defs><defs><linearGradient id="grad2_0" x1="0%" y1="100%" x2="56.3%" y2="0%"><stop offset="14.444444444444446%" stop-color="#ffffff" stop-opacity="1"></stop><stop offset="85.55555555555554%" stop-color="#ffffff" stop-opacity="1"></stop></linearGradient></defs><g transform="translate(1920, 1080)"><path d="M-324 0C-311.6 -54.1 -299.1 -108.1 -273.7 -158C-248.2 -207.9 -209.8 -253.6 -162 -280.6C-114.2 -307.6 -57.1 -315.8 0 -324L0 0Z" fill="#022B3A"></path></g><g transform="translate(0, 0)"><path d="M324 0C303.2 49.3 282.5 98.5 258.1 149C233.7 199.5 205.6 251.2 162 280.6C118.4 310 59.2 317 0 324L0 0Z" fill="#022B3A"></path></g></svg>