<svg id="visual" viewBox="0 0 1024 468" width="1024" height="468" xmlns="http://www.w3.org/2000/svg" xmlns:xlink="http://www.w3.org/1999/xlink" version="1.1"><rect x="0" y="0" width="1024" height="468" fill="#fff"></rect><path d="M0 424L28.5 418.8C57 413.7 114 403.3 170.8 400.8C227.7 398.3 284.3 403.7 341.2 400.2C398 396.7 455 384.3 512 385.7C569 387 626 402 682.8 405.8C739.7 409.7 796.3 402.3 853.2 397C910 391.7 967 388.3 995.5 386.7L1024 385L1024 469L995.5 469C967 469 910 469 853.2 469C796.3 469 739.7 469 682.8 469C626 469 569 469 512 469C455 469 398 469 341.2 469C284.3 469 227.7 469 170.8 469C114 469 57 469 28.5 469L0 469Z" fill="#1F7A8C" stroke-linecap="round" stroke-linejoin="miter"></path></svg>